<?xml version="1.0" encoding="utf-8"?>
<!-- Generator: Adobe Illustrator 20.1.0, SVG Export Plug-In . SVG Version: 6.00 Build 0)  -->
<svg version="1.1" id="Layer_1" xmlns="http://www.w3.org/2000/svg" xmlns:xlink="http://www.w3.org/1999/xlink" x="0px" y="0px"
	 viewBox="0 0 709.9 709.9" style="enable-background:new 0 0 709.9 709.9;" xml:space="preserve">
<style type="text/css">
	.st0{fill:#39CCC7;}
</style>
<g>
	<path class="st0" d="M703.1,328.9L551.8,66.8c-8.9-15.4-27.5-26.1-45.2-26.1H203.9c-17.7,0-36.3,10.7-45.2,26.1L7.4,328.9
		C3,336.4,0.7,345.4,0.7,355c0,9.5,2.3,18.5,6.7,26.1l151.3,262.1c8.9,15.4,27.5,26.1,45.2,26.1h302.7c17.7,0,36.3-10.7,45.2-26.1
		l151.3-262.1c4.4-7.6,6.7-16.6,6.7-26.1C709.8,345.4,707.5,336.4,703.1,328.9z M646.3,355.4c0,4.4-1.1,8.6-3.1,12.2L509.7,598.7
		c-4.2,7.3-12.7,12.2-21.1,12.2H221.7c-8.4,0-16.9-4.9-21.1-12.2L67.2,367.6c-2.1-3.6-3.1-7.8-3.1-12.2s1.1-8.6,3.1-12.2
		l133.4-231.1c4.2-7.3,12.7-12.2,21.1-12.2h266.9c8.4,0,16.9,4.9,21.1,12.2l133.4,231.1C645.2,346.8,646.3,351,646.3,355.4z"/>
	<path class="st0" d="M496.7,191.8h-49.3c-4.1,0-7.4,3.3-7.4,7.4v166c-6.7,67.9-79.4,116.7-153,81.1c-18.2-8.8-32.9-23.7-41.6-42
		c-36.7-76.9,18.8-152.8,91.7-152.8c12.5,0,24.7,2.2,36.1,6.5l5.8,2.4c5,2.2,9.9,4.9,14.5,7.9c5,3.3,14,1.7,14-9.7v-35.1
		c0-11.4,0.6-22.7-19.1-28.5c0,0,0,0-10-2.5l0,0l0,0c-13.4-3.4-27.3-5.2-41.4-5.2c-114.6,0-202.6,115.6-153.7,236.2
		c15.9,39.2,47.2,70.2,86.5,85.7c64,25.2,126,12.3,170-22.5c-0.2,12.3-0.2,21.4-0.2,22.6c0,4.3,3.5,7.7,7.7,7.7
		c1.4,0,5.7,0,10.9-0.1c0.7,0.1,1.5,0.1,2.3,0.1h36.1c4.1,0,7.4-3.3,7.4-7.4V199.2C504.1,195.1,500.8,191.8,496.7,191.8z"/>
</g>
</svg>
